<svg width="22" height="22" viewBox="0 0 22 22" fill="none" xmlns="http://www.w3.org/2000/svg">
<g clip-path="url(#clip0_32_691)">
<rect width="21.0719" height="21.0719" transform="translate(0.822266 0.421631)" fill="white"/>
<path d="M16.7084 9.88746C17.163 9.88746 17.5315 9.51893 17.5315 9.06433C17.5315 8.60974 17.163 8.24121 16.7084 8.24121C16.2538 8.24121 15.8853 8.60974 15.8853 9.06433C15.8853 9.51893 16.2538 9.88746 16.7084 9.88746Z" fill="#9695A8"/>
<path d="M18.6017 2.06788H17.5316V1.24475C17.5316 0.790143 17.1631 0.421631 16.7085 0.421631C16.2539 0.421631 15.8854 0.790143 15.8854 1.24475V2.06788H12.1402V1.24475C12.1402 0.790143 11.7717 0.421631 11.3171 0.421631C10.8625 0.421631 10.494 0.790143 10.494 1.24475V2.06788H6.7899V1.24475C6.7899 0.790143 6.42139 0.421631 5.96678 0.421631C5.51217 0.421631 5.14366 0.790143 5.14366 1.24475V2.06788H4.11475C2.29928 2.06788 0.822266 3.54489 0.822266 5.36036V18.2011C0.822266 20.0165 2.29928 21.4936 4.11475 21.4936H10.4116C10.8662 21.4936 11.2348 21.125 11.2348 20.6704C11.2348 20.2158 10.8662 19.8473 10.4116 19.8473H4.11475C3.20702 19.8473 2.46851 19.1088 2.46851 18.2011V5.36036C2.46851 4.45262 3.20702 3.71412 4.11475 3.71412H5.14366V4.53724C5.14366 4.99185 5.51217 5.36036 5.96678 5.36036C6.42139 5.36036 6.7899 4.99185 6.7899 4.53724V3.71412H10.494V4.53724C10.494 4.99185 10.8625 5.36036 11.3171 5.36036C11.7717 5.36036 12.1402 4.99185 12.1402 4.53724V3.71412H15.8854V4.53724C15.8854 4.99185 16.2539 5.36036 16.7085 5.36036C17.1631 5.36036 17.5316 4.99185 17.5316 4.53724V3.71412H18.6017C19.5094 3.71412 20.2479 4.45262 20.2479 5.36036V10.0522C20.2479 10.5068 20.6165 10.8753 21.0711 10.8753C21.5257 10.8753 21.8942 10.5068 21.8942 10.0522V5.36036C21.8942 3.54489 20.4172 2.06788 18.6017 2.06788Z" fill="#9695A8"/>
<path d="M16.9145 11.5337C14.1685 11.5337 11.9346 13.7676 11.9346 16.5136C11.9346 19.2595 14.1685 21.4935 16.9145 21.4935C19.6604 21.4935 21.8943 19.2595 21.8943 16.5136C21.8943 13.7676 19.6604 11.5337 16.9145 11.5337ZM16.9145 19.8472C15.0763 19.8472 13.5808 18.3518 13.5808 16.5136C13.5808 14.6754 15.0763 13.1799 16.9145 13.1799C18.7526 13.1799 20.2481 14.6754 20.2481 16.5136C20.2481 18.3518 18.7526 19.8472 16.9145 19.8472Z" fill="#9695A8"/>
<path d="M18.108 15.6906H17.7376V14.8263C17.7376 14.3717 17.369 14.0032 16.9144 14.0032C16.4598 14.0032 16.0913 14.3717 16.0913 14.8263V16.5137C16.0913 16.9683 16.4598 17.3368 16.9144 17.3368H18.108C18.5626 17.3368 18.9311 16.9683 18.9311 16.5137C18.9311 16.0591 18.5626 15.6906 18.108 15.6906Z" fill="#9695A8"/>
<path d="M13.1278 9.88746C13.5824 9.88746 13.9509 9.51893 13.9509 9.06433C13.9509 8.60974 13.5824 8.24121 13.1278 8.24121C12.6732 8.24121 12.3047 8.60974 12.3047 9.06433C12.3047 9.51893 12.6732 9.88746 13.1278 9.88746Z" fill="#9695A8"/>
<path d="M9.54724 13.468C10.0018 13.468 10.3704 13.0995 10.3704 12.6449C10.3704 12.1903 10.0018 11.8218 9.54724 11.8218C9.09265 11.8218 8.72412 12.1903 8.72412 12.6449C8.72412 13.0995 9.09265 13.468 9.54724 13.468Z" fill="#9695A8"/>
<path d="M5.96668 9.88746C6.42127 9.88746 6.7898 9.51893 6.7898 9.06433C6.7898 8.60974 6.42127 8.24121 5.96668 8.24121C5.51208 8.24121 5.14355 8.60974 5.14355 9.06433C5.14355 9.51893 5.51208 9.88746 5.96668 9.88746Z" fill="#9695A8"/>
<path d="M5.96668 13.468C6.42127 13.468 6.7898 13.0995 6.7898 12.6449C6.7898 12.1903 6.42127 11.8218 5.96668 11.8218C5.51208 11.8218 5.14355 12.1903 5.14355 12.6449C5.14355 13.0995 5.51208 13.468 5.96668 13.468Z" fill="#9695A8"/>
<path d="M5.96668 17.0486C6.42127 17.0486 6.7898 16.6801 6.7898 16.2255C6.7898 15.7709 6.42127 15.4023 5.96668 15.4023C5.51208 15.4023 5.14355 15.7709 5.14355 16.2255C5.14355 16.6801 5.51208 17.0486 5.96668 17.0486Z" fill="#9695A8"/>
<path d="M9.54724 17.0486C10.0018 17.0486 10.3704 16.6801 10.3704 16.2255C10.3704 15.7709 10.0018 15.4023 9.54724 15.4023C9.09265 15.4023 8.72412 15.7709 8.72412 16.2255C8.72412 16.6801 9.09265 17.0486 9.54724 17.0486Z" fill="#9695A8"/>
<path d="M9.54724 9.88746C10.0018 9.88746 10.3704 9.51893 10.3704 9.06433C10.3704 8.60974 10.0018 8.24121 9.54724 8.24121C9.09265 8.24121 8.72412 8.60974 8.72412 9.06433C8.72412 9.51893 9.09265 9.88746 9.54724 9.88746Z" fill="#9695A8"/>
</g>
<defs>
<clipPath id="clip0_32_691">
<rect width="21.0719" height="21.0719" fill="white" transform="translate(0.822266 0.421631)"/>
</clipPath>
</defs>
</svg>
