<svg width="22" height="22" viewBox="0 0 22 22" fill="none" xmlns="http://www.w3.org/2000/svg">
<g clip-path="url(#clip0_32_706)">
<path d="M2.91928 5.96613C3.35571 6.17727 3.53834 6.70244 3.3272 7.13865C2.75037 8.33025 2.45799 9.61466 2.45799 10.9576C2.45799 15.7988 6.39676 19.7376 11.238 19.7376C16.0792 19.7376 20.0179 15.7988 20.0179 10.9576C20.0179 6.11639 16.0792 2.17762 11.238 2.17762C9.23182 2.17762 7.34721 2.83269 5.78735 4.07188C5.40901 4.3739 4.85576 4.31067 4.55374 3.93105C4.25171 3.55164 4.31495 2.99903 4.69478 2.69744C6.54145 1.22975 8.86527 0.421631 11.238 0.421631C17.0472 0.421631 21.7739 5.14837 21.7739 10.9576C21.7739 16.7668 17.0472 21.4936 11.238 21.4936C5.42873 21.4936 0.701998 16.7668 0.701998 10.9576C0.701998 9.34779 1.05354 7.80508 1.74676 6.37405C1.95747 5.93676 2.48436 5.75456 2.91928 5.96613Z" fill="#3277D8"/>
<path d="M11.2382 3.93359C11.7229 3.93359 12.1162 4.32693 12.1162 4.81159V10.9576C12.1162 11.4422 11.7229 11.8356 11.2382 11.8356H6.84823C6.36357 11.8356 5.97023 11.4422 5.97023 10.9576C5.97023 10.4729 6.36357 10.0796 6.84823 10.0796H10.3602V4.81159C10.3602 4.32693 10.7536 3.93359 11.2382 3.93359Z" fill="#3277D8"/>
</g>
<defs>
<clipPath id="clip0_32_706">
<rect width="21.0719" height="21.0719" fill="white" transform="matrix(-1 0 0 1 21.7739 0.421631)"/>
</clipPath>
</defs>
</svg>
