<svg width="1014" height="432" viewBox="0 0 1014 432" fill="none" xmlns="http://www.w3.org/2000/svg">
<path d="M197.51 94.2423C219.79 132.854 243.243 173.61 265.733 212.346L194.597 88.2857C195.816 90.7942 196.546 92.5882 197.51 94.2423" fill="url(#paint0_linear_1318_162529)"/>
<path d="M271.165 222.96C270.981 222.6 270.788 222.233 270.586 221.857C270.788 222.233 270.981 222.6 271.165 222.96Z" fill="url(#paint1_linear_1318_162529)"/>
<path d="M264.593 247.346L264.594 247.345C264.597 247.342 264.6 247.339 264.603 247.336C264.599 247.339 264.596 247.342 264.593 247.346" fill="url(#paint2_linear_1318_162529)"/>
<path d="M194.597 89.3314C195.816 91.84 196.546 93.6339 197.51 95.288C219.79 133.9 243.243 174.656 265.733 213.392C266.742 215.131 267.751 216.863 268.753 218.587C269.406 219.706 269.996 220.762 270.532 221.756L270.587 221.857L277.777 234.396L277.779 234.397L301.829 276.334C310.068 262.006 318.223 247.748 326.322 233.459C327.526 231.339 326.641 227.075 325.282 224.614C317.772 211.016 309.773 197.689 302.015 184.231C292.82 168.264 283.703 152.251 274.097 135.477H329.879C325.328 143.483 321.096 150.325 317.554 157.501C316.297 160.056 315.419 164.141 316.599 166.331C323.946 179.944 331.929 193.224 340.914 208.701C364.399 168.008 386.857 129.07 409.79 89.3314H194.597Z" fill="url(#paint3_linear_1318_162529)"/>
<path d="M262.238 249.659C262.652 249.255 263.053 248.862 263.445 248.478C263.454 248.469 263.462 248.461 263.471 248.452C263.855 248.075 264.229 247.706 264.593 247.346L264.593 247.346L262.238 249.659Z" fill="url(#paint4_linear_1318_162529)"/>
<path d="M264.594 247.346L264.593 247.346L264.594 247.345L264.594 247.346Z" fill="url(#paint5_linear_1318_162529)"/>
<path d="M263.445 248.479C263.454 248.469 263.462 248.461 263.471 248.452C263.462 248.461 263.454 248.469 263.445 248.479Z" fill="url(#paint6_linear_1318_162529)"/>
<path d="M263.472 248.452C263.856 248.075 264.23 247.706 264.593 247.346C264.23 247.706 263.856 248.075 263.472 248.452Z" fill="url(#paint7_linear_1318_162529)"/>
<path d="M262.238 249.659C262.652 249.255 263.053 248.863 263.445 248.478C263.053 248.862 262.652 249.255 262.238 249.659Z" fill="url(#paint8_linear_1318_162529)"/>
<path d="M264.594 247.345L264.593 247.346C264.229 247.706 263.856 248.074 263.472 248.452C263.462 248.461 263.454 248.469 263.445 248.478C263.053 248.863 262.652 249.255 262.238 249.659C261.19 247.872 260.157 246.148 259.155 244.409C230.429 194.754 201.75 145.075 172.853 95.5132C171.245 92.7639 167.921 89.2538 165.281 89.1528C149.547 88.5548 133.782 88.8576 116.107 88.8576C165.444 174.329 213.864 258.224 263.085 343.502C276.248 320.693 289.139 298.429 301.829 276.334L278.1 234.957L264.594 247.345Z" fill="#f2f2f2"/>
<path d="M277.778 234.397L277.777 234.396L277.778 234.397Z" fill="url(#paint9_linear_1318_162529)"/>
<path d="M428.868 118.283C422.991 120.762 418.572 124.16 415.615 128.479C412.655 132.796 411.177 137.594 411.177 142.872C411.177 148.949 412.775 153.768 415.975 157.325C419.172 160.883 422.931 163.442 427.25 165.002C431.567 166.561 436.965 168.02 443.441 169.379C448.479 170.42 452.096 171.379 454.297 172.258C456.495 173.138 457.595 174.458 457.595 176.216C457.595 177.736 456.755 178.875 455.076 179.634C453.397 180.395 450.597 180.774 446.68 180.774C442.122 180.774 437.364 180.075 432.406 178.675C427.448 177.276 422.971 175.418 418.973 173.098L409.857 193.727C414.095 196.366 419.513 198.465 426.11 200.025C432.706 201.584 439.483 202.363 446.441 202.363C454.836 202.363 461.973 201.104 467.85 198.586C473.727 196.067 478.145 192.669 481.103 188.39C484.061 184.113 485.542 179.335 485.542 174.057C485.542 167.981 483.923 163.184 480.684 159.664C477.445 156.146 473.626 153.606 469.229 152.048C464.831 150.488 459.434 149.109 453.037 147.909C448.079 146.95 444.521 146.051 442.362 145.211C440.203 144.371 439.124 143.112 439.124 141.432C439.124 137.915 442.761 136.154 450.039 136.154C457.394 136.154 465.191 138.235 473.427 142.392L481.943 121.881C477.704 119.483 472.807 117.664 467.251 116.424C461.692 115.185 456.036 114.565 450.278 114.565C441.882 114.565 434.746 115.805 428.868 118.283" fill="url(#paint10_linear_1318_162529)"/>
<path d="M573.698 116.484L547.071 161.223L519.724 116.484H496.455V200.445H522.243V163.502L540.474 192.889H552.948L571.18 162.183L571.42 200.445H597.207L596.968 116.484H573.698Z" fill="url(#paint11_linear_1318_162529)"/>
<path d="M641.466 116.484L604.763 200.445H633.549L639.186 185.812H671.092L676.729 200.445H705.995L669.293 116.484H641.466ZM655.139 144.311L663.296 165.421H646.984L655.139 144.311Z" fill="url(#paint12_linear_1318_162529)"/>
<path d="M713.552 116.484V200.445H741.858V179.335H749.535L763.808 200.445H794.034L776.403 174.537C781.519 171.898 785.438 168.341 788.157 163.862C790.874 159.384 792.235 154.146 792.235 148.15C792.235 141.753 790.676 136.154 787.557 131.357C784.439 126.559 780.001 122.882 774.244 120.322C768.486 117.764 761.728 116.484 753.973 116.484H713.552ZM741.858 138.314H752.174C756.012 138.314 758.891 139.174 760.81 140.892C762.729 142.613 763.689 145.03 763.689 148.15C763.689 151.267 762.729 153.687 760.81 155.405C758.891 157.126 756.012 157.985 752.174 157.985H741.858V138.314Z" fill="url(#paint13_linear_1318_162529)"/>
<path d="M798.353 116.484V138.434H822.94V200.445H851.247V138.434H875.836V116.484H798.353Z" fill="url(#paint14_linear_1318_162529)"/>
<path d="M483.011 215.224L456.708 277.428H436.091L409.788 215.224H432.359L447.199 251.568L462.395 215.224H483.011Z" fill="#f2f2f2"/>
<path d="M521.666 251.48L515.624 235.84L509.581 251.48H521.666ZM527.442 266.587H503.805L499.628 277.428H478.301L505.493 215.223H526.109L553.301 277.428H531.619L527.442 266.587Z" fill="#f2f2f2"/>
<path d="M558.9 215.224H579.871V261.166H607.952V277.428H558.9V215.224Z" fill="#f2f2f2"/>
<path d="M667.668 261.61V277.428H615.949V215.224H666.512V231.042H636.566V238.328H662.868V253.435H636.566V261.61H667.668Z" fill="#f2f2f2"/>
<path d="M691.481 231.486H673.264V215.224H730.669V231.486H712.452V277.428H691.481V231.486Z" fill="#f2f2f2"/>
<path d="M843.943 216.17C841.521 216.329 838.886 217.359 836.865 218.747C830.72 222.966 828.515 229.196 829.712 236.357C830.962 243.832 835.436 248.674 843.291 250.405C843.022 253.012 842.694 255.545 842.544 258.089C842.504 258.758 842.84 259.807 843.32 260.047C843.792 260.283 844.84 259.907 845.337 259.465C847.676 257.387 850.026 255.297 852.151 253.007C853.945 251.075 855.866 250.171 858.558 250.421C862.369 250.775 865.876 249.68 868.954 247.346C874.509 243.132 876.987 235.58 875.129 228.539C873.292 221.581 868.292 216.755 861.169 216.138C858.613 215.915 856.04 215.824 853.462 215.824C850.286 215.824 847.102 215.963 843.943 216.17ZM839.891 228.666C839.919 227.086 841.163 226.902 842.467 226.906C846.444 226.916 850.421 226.915 854.398 226.914C857.191 226.914 859.984 226.913 862.776 226.916C864.393 226.918 865.342 227.683 865.171 228.869C864.984 230.154 864.047 230.432 862.913 230.427C859.444 230.415 855.975 230.423 852.505 230.423V230.445C849.15 230.445 845.795 230.443 842.44 230.446C842.436 230.446 842.432 230.446 842.427 230.446C841.157 230.445 839.863 230.294 839.891 228.666ZM842.018 239.803C840.782 239.799 839.835 239.28 839.877 237.933C839.918 236.665 840.887 236.267 842.027 236.261C843.787 236.251 845.547 236.258 847.307 236.258V236.292C849.066 236.292 850.825 236.299 852.584 236.29C853.786 236.283 854.643 236.806 854.634 238.043C854.626 239.266 853.788 239.808 852.579 239.806C850.96 239.802 849.34 239.804 847.721 239.806C846.791 239.807 845.862 239.808 844.932 239.808C843.961 239.808 842.989 239.807 842.018 239.803" fill="url(#paint15_linear_1318_162529)"/>
<path d="M823.269 212.98C819.176 213.023 816.904 215.324 816.903 219.339C816.896 237.266 816.894 255.193 816.903 273.121C816.907 277.022 819.234 279.406 823.162 279.427C831.473 279.472 839.784 279.478 848.094 279.433C851.903 279.413 854.253 276.988 854.271 273.203C854.295 268.137 854.287 263.072 854.279 258.006C854.279 257.549 854.185 257.092 854.104 256.37C853.229 257.19 852.663 257.848 851.975 258.335C850.688 259.246 850.2 260.394 850.36 261.97C850.494 263.304 850.387 264.663 850.387 266.039H820.856V222.425C823.038 222.425 825.128 222.383 827.214 222.444C828.109 222.471 828.598 222.164 829.139 221.431C830.28 219.882 831.447 218.272 832.915 217.066C834.814 215.505 837.017 214.315 839.079 212.972C838.575 212.972 838.007 212.972 837.439 212.972C834.501 212.971 831.564 212.955 828.626 212.955C826.84 212.955 825.054 212.961 823.268 212.98H823.269ZM832.018 272.731C831.95 270.848 833.629 269.082 835.533 269.033C837.352 268.987 839.053 270.609 839.119 272.456C839.189 274.382 837.567 276.076 835.626 276.103C835.61 276.103 835.594 276.103 835.579 276.103C833.713 276.103 832.084 274.566 832.018 272.731Z" fill="url(#paint16_linear_1318_162529)"/>
<path d="M762.882 215.73C762.475 215.73 762.043 215.73 761.611 215.73C755.21 215.73 748.808 215.749 742.406 215.709C741.44 215.703 741.149 215.966 741.156 216.945C741.197 223.236 741.177 229.528 741.177 235.819C741.177 236.332 741.177 236.844 741.177 237.464H739.014C738.992 237.132 738.952 236.81 738.952 236.489C738.949 229.204 738.965 221.919 738.929 214.634C738.925 213.696 739.229 213.468 740.125 213.472C747.152 213.505 754.18 213.491 761.207 213.491C763.25 213.491 763.28 213.528 762.882 215.73Z" fill="#f2f2f2"/>
<path d="M768.156 272.133V279.867H766.673L762.783 275.171V279.867H761V272.133H762.494L766.373 276.829V272.133H768.156Z" fill="url(#paint17_linear_1318_162529)"/>
<path d="M771.808 273.569V275.613H775.419V277.05H771.808V279.867H770.002V272.133H775.898V273.569H771.808Z" fill="url(#paint18_linear_1318_162529)"/>
<path d="M780.779 280C779.984 280 779.263 279.831 778.616 279.492C777.977 279.145 777.472 278.67 777.1 278.066C776.736 277.455 776.554 276.766 776.554 276C776.554 275.234 776.736 274.549 777.1 273.945C777.472 273.333 777.977 272.858 778.616 272.519C779.263 272.173 779.987 272 780.79 272C781.466 272 782.075 272.118 782.618 272.354C783.168 272.589 783.628 272.928 784 273.37L782.841 274.431C782.313 273.827 781.659 273.525 780.879 273.525C780.396 273.525 779.965 273.632 779.586 273.845C779.207 274.052 778.91 274.343 778.694 274.718C778.486 275.094 778.382 275.521 778.382 276C778.382 276.479 778.486 276.906 778.694 277.282C778.91 277.657 779.207 277.952 779.586 278.166C779.965 278.372 780.396 278.475 780.879 278.475C781.659 278.475 782.313 278.169 782.841 277.558L784 278.619C783.628 279.068 783.168 279.411 782.618 279.646C782.068 279.882 781.455 280 780.779 280Z" fill="url(#paint19_linear_1318_162529)"/>
<path d="M752.973 277.9V280.072H739.012V256.145H741.16V277.9H752.973Z" fill="#f2f2f2"/>
<path d="M803.371 277.932V256.164H805.527V280.056H791.605V277.932H803.371Z" fill="#f2f2f2"/>
<path d="M751 224H752.76V225.76H751V224Z" fill="#f2f2f2"/>
<path d="M751 238.08H752.76V239.84H751V238.08Z" fill="#f2f2f2"/>
<path d="M751 252.16H752.76V253.92H751V252.16Z" fill="#f2f2f2"/>
<path d="M751 231.04H752.76V232.8H751V231.04Z" fill="#f2f2f2"/>
<path d="M751 259.2H752.76V260.96H751V259.2Z" fill="#f2f2f2"/>
<path d="M751 227.52H752.76V229.28H751V227.52Z" fill="#f2f2f2"/>
<path d="M751 255.68H752.76V257.44H751V255.68Z" fill="#f2f2f2"/>
<path d="M751 234.56H752.76V236.32H751V234.56Z" fill="#f2f2f2"/>
<path d="M751 262.72H752.76V264.48H751V262.72Z" fill="#f2f2f2"/>
<path d="M751 225.76H752.76V227.52H751V225.76Z" fill="#f2f2f2"/>
<path d="M751 232.8H752.76V234.56H751V232.8Z" fill="#f2f2f2"/>
<path d="M751 246.88H752.76V248.64H751V246.88Z" fill="#f2f2f2"/>
<path d="M751 260.96H752.76V262.72H751V260.96Z" fill="#f2f2f2"/>
<path d="M751 229.28H752.76V231.04H751V229.28Z" fill="#f2f2f2"/>
<path d="M751 257.44H752.76V259.2H751V257.44Z" fill="#f2f2f2"/>
<path d="M751 264.48H752.76V266.24H751V264.48Z" fill="#f2f2f2"/>
<path d="M751 266.24H752.76V268H751V266.24Z" fill="#f2f2f2"/>
<path d="M763.32 252.16H765.08V253.92H763.32V252.16Z" fill="#f2f2f2"/>
<path d="M763.32 241.6H765.08V243.36H763.32V241.6Z" fill="#f2f2f2"/>
<path d="M763.32 239.84H765.08V241.6H763.32V239.84Z" fill="#f2f2f2"/>
<path d="M775.64 255.68H777.4V257.44H775.64V255.68Z" fill="#f2f2f2"/>
<path d="M775.64 234.56H777.4V236.32H775.64V234.56Z" fill="#f2f2f2"/>
<path d="M775.64 248.64H777.4V250.4H775.64V248.64Z" fill="#f2f2f2"/>
<path d="M775.64 262.72H777.4V264.48H775.64V262.72Z" fill="#f2f2f2"/>
<path d="M775.64 239.84H777.4V241.6H775.64V239.84Z" fill="#f2f2f2"/>
<path d="M775.64 253.92H777.4V255.68H775.64V253.92Z" fill="#f2f2f2"/>
<path d="M775.64 246.88H777.4V248.64H775.64V246.88Z" fill="#f2f2f2"/>
<path d="M775.64 229.28H777.4V231.04H775.64V229.28Z" fill="#f2f2f2"/>
<path d="M775.64 243.36H777.4V245.12H775.64V243.36Z" fill="#f2f2f2"/>
<path d="M775.64 257.44H777.4V259.2H775.64V257.44Z" fill="#f2f2f2"/>
<path d="M775.64 266.24H777.4V268H775.64V266.24Z" fill="#f2f2f2"/>
<path d="M787.96 224H789.72V225.76H787.96V224Z" fill="#f2f2f2"/>
<path d="M787.96 238.08H789.72V239.84H787.96V238.08Z" fill="#f2f2f2"/>
<path d="M787.96 252.16H789.72V253.92H787.96V252.16Z" fill="#f2f2f2"/>
<path d="M787.96 231.04H789.72V232.8H787.96V231.04Z" fill="#f2f2f2"/>
<path d="M787.96 245.12H789.72V246.88H787.96V245.12Z" fill="#f2f2f2"/>
<path d="M787.96 259.2H789.72V260.96H787.96V259.2Z" fill="#f2f2f2"/>
<path d="M787.96 227.52H789.72V229.28H787.96V227.52Z" fill="#f2f2f2"/>
<path d="M787.96 241.6H789.72V243.36H787.96V241.6Z" fill="#f2f2f2"/>
<path d="M787.96 234.56H789.72V236.32H787.96V234.56Z" fill="#f2f2f2"/>
<path d="M787.96 248.64H789.72V250.4H787.96V248.64Z" fill="#f2f2f2"/>
<path d="M787.96 262.72H789.72V264.48H787.96V262.72Z" fill="#f2f2f2"/>
<path d="M787.96 239.84H789.72V241.6H787.96V239.84Z" fill="#f2f2f2"/>
<path d="M787.96 229.28H789.72V231.04H787.96V229.28Z" fill="#f2f2f2"/>
<path d="M787.96 257.44H789.72V259.2H787.96V257.44Z" fill="#f2f2f2"/>
<path d="M787.96 264.48H789.72V266.24H787.96V264.48Z" fill="#f2f2f2"/>
<path d="M752.76 224H754.52V225.76H752.76V224Z" fill="#f2f2f2"/>
<path d="M752.76 238.08H754.52V239.84H752.76V238.08Z" fill="#f2f2f2"/>
<path d="M752.76 252.16H754.52V253.92H752.76V252.16Z" fill="#f2f2f2"/>
<path d="M752.76 241.6H754.52V243.36H752.76V241.6Z" fill="#f2f2f2"/>
<path d="M752.76 255.68H754.52V257.44H752.76V255.68Z" fill="#f2f2f2"/>
<path d="M752.76 234.56H754.52V236.32H752.76V234.56Z" fill="#f2f2f2"/>
<path d="M752.76 239.84H754.52V241.6H752.76V239.84Z" fill="#f2f2f2"/>
<path d="M752.76 266.24H754.52V268H752.76V266.24Z" fill="#f2f2f2"/>
<path d="M765.08 224H766.84V225.76H765.08V224Z" fill="#f2f2f2"/>
<path d="M765.08 252.16H766.84V253.92H765.08V252.16Z" fill="#f2f2f2"/>
<path d="M765.08 245.12H766.84V246.88H765.08V245.12Z" fill="#f2f2f2"/>
<path d="M765.08 259.2H766.84V260.96H765.08V259.2Z" fill="#f2f2f2"/>
<path d="M765.08 227.52H766.84V229.28H765.08V227.52Z" fill="#f2f2f2"/>
<path d="M765.08 234.56H766.84V236.32H765.08V234.56Z" fill="#f2f2f2"/>
<path d="M765.08 248.64H766.84V250.4H765.08V248.64Z" fill="#f2f2f2"/>
<path d="M765.08 225.76H766.84V227.52H765.08V225.76Z" fill="#f2f2f2"/>
<path d="M765.08 253.92H766.84V255.68H765.08V253.92Z" fill="#f2f2f2"/>
<path d="M765.08 232.8H766.84V234.56H765.08V232.8Z" fill="#f2f2f2"/>
<path d="M765.08 229.28H766.84V231.04H765.08V229.28Z" fill="#f2f2f2"/>
<path d="M765.08 257.44H766.84V259.2H765.08V257.44Z" fill="#f2f2f2"/>
<path d="M765.08 264.48H766.84V266.24H765.08V264.48Z" fill="#f2f2f2"/>
<path d="M765.08 266.24H766.84V268H765.08V266.24Z" fill="#f2f2f2"/>
<path d="M777.4 224H779.16V225.76H777.4V224Z" fill="#f2f2f2"/>
<path d="M777.4 252.16H779.16V253.92H777.4V252.16Z" fill="#f2f2f2"/>
<path d="M777.4 231.04H779.16V232.8H777.4V231.04Z" fill="#f2f2f2"/>
<path d="M777.4 227.52H779.16V229.28H777.4V227.52Z" fill="#f2f2f2"/>
<path d="M777.4 241.6H779.16V243.36H777.4V241.6Z" fill="#f2f2f2"/>
<path d="M777.4 248.64H779.16V250.4H777.4V248.64Z" fill="#f2f2f2"/>
<path d="M777.4 262.72H779.16V264.48H777.4V262.72Z" fill="#f2f2f2"/>
<path d="M777.4 239.84H779.16V241.6H777.4V239.84Z" fill="#f2f2f2"/>
<path d="M777.4 246.88H779.16V248.64H777.4V246.88Z" fill="#f2f2f2"/>
<path d="M777.4 260.96H779.16V262.72H777.4V260.96Z" fill="#f2f2f2"/>
<path d="M777.4 229.28H779.16V231.04H777.4V229.28Z" fill="#f2f2f2"/>
<path d="M777.4 243.36H779.16V245.12H777.4V243.36Z" fill="#f2f2f2"/>
<path d="M777.4 250.4H779.16V252.16H777.4V250.4Z" fill="#f2f2f2"/>
<path d="M777.4 266.24H779.16V268H777.4V266.24Z" fill="#f2f2f2"/>
<path d="M789.72 224H791.48V225.76H789.72V224Z" fill="#f2f2f2"/>
<path d="M789.72 238.08H791.48V239.84H789.72V238.08Z" fill="#f2f2f2"/>
<path d="M789.72 252.16H791.48V253.92H789.72V252.16Z" fill="#f2f2f2"/>
<path d="M789.72 231.04H791.48V232.8H789.72V231.04Z" fill="#f2f2f2"/>
<path d="M789.72 245.12H791.48V246.88H789.72V245.12Z" fill="#f2f2f2"/>
<path d="M789.72 259.2H791.48V260.96H789.72V259.2Z" fill="#f2f2f2"/>
<path d="M789.72 227.52H791.48V229.28H789.72V227.52Z" fill="#f2f2f2"/>
<path d="M789.72 241.6H791.48V243.36H789.72V241.6Z" fill="#f2f2f2"/>
<path d="M789.72 234.56H791.48V236.32H789.72V234.56Z" fill="#f2f2f2"/>
<path d="M789.72 248.64H791.48V250.4H789.72V248.64Z" fill="#f2f2f2"/>
<path d="M789.72 260.96H791.48V262.72H789.72V260.96Z" fill="#f2f2f2"/>
<path d="M789.72 229.28H791.48V231.04H789.72V229.28Z" fill="#f2f2f2"/>
<path d="M789.72 243.36H791.48V245.12H789.72V243.36Z" fill="#f2f2f2"/>
<path d="M789.72 257.44H791.48V259.2H789.72V257.44Z" fill="#f2f2f2"/>
<path d="M789.72 250.4H791.48V252.16H789.72V250.4Z" fill="#f2f2f2"/>
<path d="M789.72 264.48H791.48V266.24H789.72V264.48Z" fill="#f2f2f2"/>
<path d="M789.72 266.24H791.48V268H789.72V266.24Z" fill="#f2f2f2"/>
<path d="M754.52 224H756.28V225.76H754.52V224Z" fill="#f2f2f2"/>
<path d="M754.52 252.16H756.28V253.92H754.52V252.16Z" fill="#f2f2f2"/>
<path d="M754.52 231.04H756.28V232.8H754.52V231.04Z" fill="#f2f2f2"/>
<path d="M754.52 259.2H756.28V260.96H754.52V259.2Z" fill="#f2f2f2"/>
<path d="M754.52 227.52H756.28V229.28H754.52V227.52Z" fill="#f2f2f2"/>
<path d="M754.52 241.6H756.28V243.36H754.52V241.6Z" fill="#f2f2f2"/>
<path d="M754.52 255.68H756.28V257.44H754.52V255.68Z" fill="#f2f2f2"/>
<path d="M754.52 234.56H756.28V236.32H754.52V234.56Z" fill="#f2f2f2"/>
<path d="M754.52 248.64H756.28V250.4H754.52V248.64Z" fill="#f2f2f2"/>
<path d="M754.52 262.72H756.28V264.48H754.52V262.72Z" fill="#f2f2f2"/>
<path d="M754.52 260.96H756.28V262.72H754.52V260.96Z" fill="#f2f2f2"/>
<path d="M754.52 229.28H756.28V231.04H754.52V229.28Z" fill="#f2f2f2"/>
<path d="M754.52 266.24H756.28V268H754.52V266.24Z" fill="#f2f2f2"/>
<path d="M766.84 224H768.6V225.76H766.84V224Z" fill="#f2f2f2"/>
<path d="M766.84 252.16H768.6V253.92H766.84V252.16Z" fill="#f2f2f2"/>
<path d="M766.84 259.2H768.6V260.96H766.84V259.2Z" fill="#f2f2f2"/>
<path d="M766.84 255.68H768.6V257.44H766.84V255.68Z" fill="#f2f2f2"/>
<path d="M766.84 248.64H768.6V250.4H766.84V248.64Z" fill="#f2f2f2"/>
<path d="M766.84 262.72H768.6V264.48H766.84V262.72Z" fill="#f2f2f2"/>
<path d="M766.84 225.76H768.6V227.52H766.84V225.76Z" fill="#f2f2f2"/>
<path d="M766.84 239.84H768.6V241.6H766.84V239.84Z" fill="#f2f2f2"/>
<path d="M766.84 260.96H768.6V262.72H766.84V260.96Z" fill="#f2f2f2"/>
<path d="M766.84 229.28H768.6V231.04H766.84V229.28Z" fill="#f2f2f2"/>
<path d="M766.84 236.32H768.6V238.08H766.84V236.32Z" fill="#f2f2f2"/>
<path d="M779.16 224H780.92V225.76H779.16V224Z" fill="#f2f2f2"/>
<path d="M779.16 238.08H780.92V239.84H779.16V238.08Z" fill="#f2f2f2"/>
<path d="M779.16 252.16H780.92V253.92H779.16V252.16Z" fill="#f2f2f2"/>
<path d="M779.16 231.04H780.92V232.8H779.16V231.04Z" fill="#f2f2f2"/>
<path d="M779.16 259.2H780.92V260.96H779.16V259.2Z" fill="#f2f2f2"/>
<path d="M779.16 255.68H780.92V257.44H779.16V255.68Z" fill="#f2f2f2"/>
<path d="M779.16 234.56H780.92V236.32H779.16V234.56Z" fill="#f2f2f2"/>
<path d="M779.16 262.72H780.92V264.48H779.16V262.72Z" fill="#f2f2f2"/>
<path d="M779.16 239.84H780.92V241.6H779.16V239.84Z" fill="#f2f2f2"/>
<path d="M779.16 253.92H780.92V255.68H779.16V253.92Z" fill="#f2f2f2"/>
<path d="M779.16 246.88H780.92V248.64H779.16V246.88Z" fill="#f2f2f2"/>
<path d="M779.16 260.96H780.92V262.72H779.16V260.96Z" fill="#f2f2f2"/>
<path d="M779.16 243.36H780.92V245.12H779.16V243.36Z" fill="#f2f2f2"/>
<path d="M779.16 257.44H780.92V259.2H779.16V257.44Z" fill="#f2f2f2"/>
<path d="M779.16 236.32H780.92V238.08H779.16V236.32Z" fill="#f2f2f2"/>
<path d="M791.48 224H793.24V225.76H791.48V224Z" fill="#f2f2f2"/>
<path d="M791.48 238.08H793.24V239.84H791.48V238.08Z" fill="#f2f2f2"/>
<path d="M791.48 245.12H793.24V246.88H791.48V245.12Z" fill="#f2f2f2"/>
<path d="M791.48 234.56H793.24V236.32H791.48V234.56Z" fill="#f2f2f2"/>
<path d="M791.48 262.72H793.24V264.48H791.48V262.72Z" fill="#f2f2f2"/>
<path d="M791.48 239.84H793.24V241.6H791.48V239.84Z" fill="#f2f2f2"/>
<path d="M791.48 246.88H793.24V248.64H791.48V246.88Z" fill="#f2f2f2"/>
<path d="M791.48 260.96H793.24V262.72H791.48V260.96Z" fill="#f2f2f2"/>
<path d="M791.48 243.36H793.24V245.12H791.48V243.36Z" fill="#f2f2f2"/>
<path d="M791.48 250.4H793.24V252.16H791.48V250.4Z" fill="#f2f2f2"/>
<path d="M791.48 264.48H793.24V266.24H791.48V264.48Z" fill="#f2f2f2"/>
<path d="M791.48 266.24H793.24V268H791.48V266.24Z" fill="#f2f2f2"/>
<path d="M756.28 224H758.04V225.76H756.28V224Z" fill="#f2f2f2"/>
<path d="M756.28 252.16H758.04V253.92H756.28V252.16Z" fill="#f2f2f2"/>
<path d="M756.28 231.04H758.04V232.8H756.28V231.04Z" fill="#f2f2f2"/>
<path d="M756.28 245.12H758.04V246.88H756.28V245.12Z" fill="#f2f2f2"/>
<path d="M756.28 259.2H758.04V260.96H756.28V259.2Z" fill="#f2f2f2"/>
<path d="M756.28 227.52H758.04V229.28H756.28V227.52Z" fill="#f2f2f2"/>
<path d="M756.28 241.6H758.04V243.36H756.28V241.6Z" fill="#f2f2f2"/>
<path d="M756.28 255.68H758.04V257.44H756.28V255.68Z" fill="#f2f2f2"/>
<path d="M756.28 234.56H758.04V236.32H756.28V234.56Z" fill="#f2f2f2"/>
<path d="M756.28 248.64H758.04V250.4H756.28V248.64Z" fill="#f2f2f2"/>
<path d="M756.28 262.72H758.04V264.48H756.28V262.72Z" fill="#f2f2f2"/>
<path d="M756.28 246.88H758.04V248.64H756.28V246.88Z" fill="#f2f2f2"/>
<path d="M756.28 260.96H758.04V262.72H756.28V260.96Z" fill="#f2f2f2"/>
<path d="M756.28 229.28H758.04V231.04H756.28V229.28Z" fill="#f2f2f2"/>
<path d="M756.28 243.36H758.04V245.12H756.28V243.36Z" fill="#f2f2f2"/>
<path d="M756.28 250.4H758.04V252.16H756.28V250.4Z" fill="#f2f2f2"/>
<path d="M756.28 266.24H758.04V268H756.28V266.24Z" fill="#f2f2f2"/>
<path d="M768.6 224H770.36V225.76H768.6V224Z" fill="#f2f2f2"/>
<path d="M768.6 245.12H770.36V246.88H768.6V245.12Z" fill="#f2f2f2"/>
<path d="M768.6 227.52H770.36V229.28H768.6V227.52Z" fill="#f2f2f2"/>
<path d="M768.6 234.56H770.36V236.32H768.6V234.56Z" fill="#f2f2f2"/>
<path d="M768.6 225.76H770.36V227.52H768.6V225.76Z" fill="#f2f2f2"/>
<path d="M768.6 239.84H770.36V241.6H768.6V239.84Z" fill="#f2f2f2"/>
<path d="M768.6 243.36H770.36V245.12H768.6V243.36Z" fill="#f2f2f2"/>
<path d="M768.6 257.44H770.36V259.2H768.6V257.44Z" fill="#f2f2f2"/>
<path d="M780.92 252.16H782.68V253.92H780.92V252.16Z" fill="#f2f2f2"/>
<path d="M780.92 245.12H782.68V246.88H780.92V245.12Z" fill="#f2f2f2"/>
<path d="M780.92 259.2H782.68V260.96H780.92V259.2Z" fill="#f2f2f2"/>
<path d="M780.92 262.72H782.68V264.48H780.92V262.72Z" fill="#f2f2f2"/>
<path d="M780.92 239.84H782.68V241.6H780.92V239.84Z" fill="#f2f2f2"/>
<path d="M780.92 246.88H782.68V248.64H780.92V246.88Z" fill="#f2f2f2"/>
<path d="M793.24 224H795V225.76H793.24V224Z" fill="#f2f2f2"/>
<path d="M793.24 238.08H795V239.84H793.24V238.08Z" fill="#f2f2f2"/>
<path d="M793.24 231.04H795V232.8H793.24V231.04Z" fill="#f2f2f2"/>
<path d="M793.24 245.12H795V246.88H793.24V245.12Z" fill="#f2f2f2"/>
<path d="M793.24 227.52H795V229.28H793.24V227.52Z" fill="#f2f2f2"/>
<path d="M793.24 234.56H795V236.32H793.24V234.56Z" fill="#f2f2f2"/>
<path d="M793.24 225.76H795V227.52H793.24V225.76Z" fill="#f2f2f2"/>
<path d="M793.24 232.8H795V234.56H793.24V232.8Z" fill="#f2f2f2"/>
<path d="M793.24 260.96H795V262.72H793.24V260.96Z" fill="#f2f2f2"/>
<path d="M793.24 229.28H795V231.04H793.24V229.28Z" fill="#f2f2f2"/>
<path d="M793.24 257.44H795V259.2H793.24V257.44Z" fill="#f2f2f2"/>
<path d="M793.24 266.24H795V268H793.24V266.24Z" fill="#f2f2f2"/>
<path d="M758.04 224H759.8V225.76H758.04V224Z" fill="#f2f2f2"/>
<path d="M758.04 238.08H759.8V239.84H758.04V238.08Z" fill="#f2f2f2"/>
<path d="M758.04 231.04H759.8V232.8H758.04V231.04Z" fill="#f2f2f2"/>
<path d="M758.04 245.12H759.8V246.88H758.04V245.12Z" fill="#f2f2f2"/>
<path d="M758.04 259.2H759.8V260.96H758.04V259.2Z" fill="#f2f2f2"/>
<path d="M758.04 227.52H759.8V229.28H758.04V227.52Z" fill="#f2f2f2"/>
<path d="M758.04 255.68H759.8V257.44H758.04V255.68Z" fill="#f2f2f2"/>
<path d="M758.04 234.56H759.8V236.32H758.04V234.56Z" fill="#f2f2f2"/>
<path d="M758.04 262.72H759.8V264.48H758.04V262.72Z" fill="#f2f2f2"/>
<path d="M758.04 260.96H759.8V262.72H758.04V260.96Z" fill="#f2f2f2"/>
<path d="M758.04 229.28H759.8V231.04H758.04V229.28Z" fill="#f2f2f2"/>
<path d="M758.04 250.4H759.8V252.16H758.04V250.4Z" fill="#f2f2f2"/>
<path d="M758.04 266.24H759.8V268H758.04V266.24Z" fill="#f2f2f2"/>
<path d="M770.36 238.08H772.12V239.84H770.36V238.08Z" fill="#f2f2f2"/>
<path d="M770.36 252.16H772.12V253.92H770.36V252.16Z" fill="#f2f2f2"/>
<path d="M770.36 245.12H772.12V246.88H770.36V245.12Z" fill="#f2f2f2"/>
<path d="M770.36 227.52H772.12V229.28H770.36V227.52Z" fill="#f2f2f2"/>
<path d="M770.36 241.6H772.12V243.36H770.36V241.6Z" fill="#f2f2f2"/>
<path d="M770.36 255.68H772.12V257.44H770.36V255.68Z" fill="#f2f2f2"/>
<path d="M770.36 248.64H772.12V250.4H770.36V248.64Z" fill="#f2f2f2"/>
<path d="M770.36 262.72H772.12V264.48H770.36V262.72Z" fill="#f2f2f2"/>
<path d="M770.36 253.92H772.12V255.68H770.36V253.92Z" fill="#f2f2f2"/>
<path d="M770.36 232.8H772.12V234.56H770.36V232.8Z" fill="#f2f2f2"/>
<path d="M770.36 246.88H772.12V248.64H770.36V246.88Z" fill="#f2f2f2"/>
<path d="M770.36 260.96H772.12V262.72H770.36V260.96Z" fill="#f2f2f2"/>
<path d="M770.36 229.28H772.12V231.04H770.36V229.28Z" fill="#f2f2f2"/>
<path d="M770.36 243.36H772.12V245.12H770.36V243.36Z" fill="#f2f2f2"/>
<path d="M770.36 266.24H772.12V268H770.36V266.24Z" fill="#f2f2f2"/>
<path d="M782.68 224H784.44V225.76H782.68V224Z" fill="#f2f2f2"/>
<path d="M782.68 252.16H784.44V253.92H782.68V252.16Z" fill="#f2f2f2"/>
<path d="M782.68 231.04H784.44V232.8H782.68V231.04Z" fill="#f2f2f2"/>
<path d="M782.68 245.12H784.44V246.88H782.68V245.12Z" fill="#f2f2f2"/>
<path d="M782.68 259.2H784.44V260.96H782.68V259.2Z" fill="#f2f2f2"/>
<path d="M782.68 227.52H784.44V229.28H782.68V227.52Z" fill="#f2f2f2"/>
<path d="M782.68 255.68H784.44V257.44H782.68V255.68Z" fill="#f2f2f2"/>
<path d="M782.68 234.56H784.44V236.32H782.68V234.56Z" fill="#f2f2f2"/>
<path d="M782.68 262.72H784.44V264.48H782.68V262.72Z" fill="#f2f2f2"/>
<path d="M782.68 225.76H784.44V227.52H782.68V225.76Z" fill="#f2f2f2"/>
<path d="M782.68 232.8H784.44V234.56H782.68V232.8Z" fill="#f2f2f2"/>
<path d="M782.68 260.96H784.44V262.72H782.68V260.96Z" fill="#f2f2f2"/>
<path d="M782.68 229.28H784.44V231.04H782.68V229.28Z" fill="#f2f2f2"/>
<path d="M782.68 243.36H784.44V245.12H782.68V243.36Z" fill="#f2f2f2"/>
<path d="M782.68 250.4H784.44V252.16H782.68V250.4Z" fill="#f2f2f2"/>
<path d="M782.68 264.48H784.44V266.24H782.68V264.48Z" fill="#f2f2f2"/>
<path d="M759.8 224H761.56V225.76H759.8V224Z" fill="#f2f2f2"/>
<path d="M759.8 238.08H761.56V239.84H759.8V238.08Z" fill="#f2f2f2"/>
<path d="M759.8 245.12H761.56V246.88H759.8V245.12Z" fill="#f2f2f2"/>
<path d="M759.8 255.68H761.56V257.44H759.8V255.68Z" fill="#f2f2f2"/>
<path d="M759.8 234.56H761.56V236.32H759.8V234.56Z" fill="#f2f2f2"/>
<path d="M759.8 239.84H761.56V241.6H759.8V239.84Z" fill="#f2f2f2"/>
<path d="M759.8 246.88H761.56V248.64H759.8V246.88Z" fill="#f2f2f2"/>
<path d="M759.8 243.36H761.56V245.12H759.8V243.36Z" fill="#f2f2f2"/>
<path d="M759.8 250.4H761.56V252.16H759.8V250.4Z" fill="#f2f2f2"/>
<path d="M759.8 266.24H761.56V268H759.8V266.24Z" fill="#f2f2f2"/>
<path d="M772.12 224H773.88V225.76H772.12V224Z" fill="#f2f2f2"/>
<path d="M772.12 238.08H773.88V239.84H772.12V238.08Z" fill="#f2f2f2"/>
<path d="M772.12 252.16H773.88V253.92H772.12V252.16Z" fill="#f2f2f2"/>
<path d="M772.12 245.12H773.88V246.88H772.12V245.12Z" fill="#f2f2f2"/>
<path d="M772.12 259.2H773.88V260.96H772.12V259.2Z" fill="#f2f2f2"/>
<path d="M772.12 241.6H773.88V243.36H772.12V241.6Z" fill="#f2f2f2"/>
<path d="M772.12 255.68H773.88V257.44H772.12V255.68Z" fill="#f2f2f2"/>
<path d="M772.12 234.56H773.88V236.32H772.12V234.56Z" fill="#f2f2f2"/>
<path d="M772.12 248.64H773.88V250.4H772.12V248.64Z" fill="#f2f2f2"/>
<path d="M772.12 239.84H773.88V241.6H772.12V239.84Z" fill="#f2f2f2"/>
<path d="M772.12 232.8H773.88V234.56H772.12V232.8Z" fill="#f2f2f2"/>
<path d="M772.12 243.36H773.88V245.12H772.12V243.36Z" fill="#f2f2f2"/>
<path d="M772.12 236.32H773.88V238.08H772.12V236.32Z" fill="#f2f2f2"/>
<path d="M772.12 250.4H773.88V252.16H772.12V250.4Z" fill="#f2f2f2"/>
<path d="M772.12 264.48H773.88V266.24H772.12V264.48Z" fill="#f2f2f2"/>
<path d="M772.12 266.24H773.88V268H772.12V266.24Z" fill="#f2f2f2"/>
<path d="M784.44 224H786.2V225.76H784.44V224Z" fill="#f2f2f2"/>
<path d="M784.44 238.08H786.2V239.84H784.44V238.08Z" fill="#f2f2f2"/>
<path d="M784.44 252.16H786.2V253.92H784.44V252.16Z" fill="#f2f2f2"/>
<path d="M784.44 259.2H786.2V260.96H784.44V259.2Z" fill="#f2f2f2"/>
<path d="M784.44 241.6H786.2V243.36H784.44V241.6Z" fill="#f2f2f2"/>
<path d="M784.44 234.56H786.2V236.32H784.44V234.56Z" fill="#f2f2f2"/>
<path d="M784.44 248.64H786.2V250.4H784.44V248.64Z" fill="#f2f2f2"/>
<path d="M784.44 260.96H786.2V262.72H784.44V260.96Z" fill="#f2f2f2"/>
<path d="M784.44 243.36H786.2V245.12H784.44V243.36Z" fill="#f2f2f2"/>
<path d="M784.44 250.4H786.2V252.16H784.44V250.4Z" fill="#f2f2f2"/>
<path d="M784.44 264.48H786.2V266.24H784.44V264.48Z" fill="#f2f2f2"/>
<path d="M761.56 224H763.32V225.76H761.56V224Z" fill="#f2f2f2"/>
<path d="M761.56 238.08H763.32V239.84H761.56V238.08Z" fill="#f2f2f2"/>
<path d="M761.56 252.16H763.32V253.92H761.56V252.16Z" fill="#f2f2f2"/>
<path d="M761.56 231.04H763.32V232.8H761.56V231.04Z" fill="#f2f2f2"/>
<path d="M761.56 245.12H763.32V246.88H761.56V245.12Z" fill="#f2f2f2"/>
<path d="M761.56 259.2H763.32V260.96H761.56V259.2Z" fill="#f2f2f2"/>
<path d="M761.56 227.52H763.32V229.28H761.56V227.52Z" fill="#f2f2f2"/>
<path d="M761.56 241.6H763.32V243.36H761.56V241.6Z" fill="#f2f2f2"/>
<path d="M761.56 255.68H763.32V257.44H761.56V255.68Z" fill="#f2f2f2"/>
<path d="M761.56 234.56H763.32V236.32H761.56V234.56Z" fill="#f2f2f2"/>
<path d="M761.56 248.64H763.32V250.4H761.56V248.64Z" fill="#f2f2f2"/>
<path d="M761.56 262.72H763.32V264.48H761.56V262.72Z" fill="#f2f2f2"/>
<path d="M761.56 225.76H763.32V227.52H761.56V225.76Z" fill="#f2f2f2"/>
<path d="M761.56 232.8H763.32V234.56H761.56V232.8Z" fill="#f2f2f2"/>
<path d="M761.56 260.96H763.32V262.72H761.56V260.96Z" fill="#f2f2f2"/>
<path d="M761.56 229.28H763.32V231.04H761.56V229.28Z" fill="#f2f2f2"/>
<path d="M761.56 257.44H763.32V259.2H761.56V257.44Z" fill="#f2f2f2"/>
<path d="M761.56 264.48H763.32V266.24H761.56V264.48Z" fill="#f2f2f2"/>
<path d="M761.56 266.24H763.32V268H761.56V266.24Z" fill="#f2f2f2"/>
<path d="M773.88 224H775.64V225.76H773.88V224Z" fill="#f2f2f2"/>
<path d="M773.88 231.04H775.64V232.8H773.88V231.04Z" fill="#f2f2f2"/>
<path d="M773.88 225.76H775.64V227.52H773.88V225.76Z" fill="#f2f2f2"/>
<path d="M773.88 239.84H775.64V241.6H773.88V239.84Z" fill="#f2f2f2"/>
<path d="M773.88 253.92H775.64V255.68H773.88V253.92Z" fill="#f2f2f2"/>
<path d="M773.88 260.96H775.64V262.72H773.88V260.96Z" fill="#f2f2f2"/>
<path d="M773.88 229.28H775.64V231.04H773.88V229.28Z" fill="#f2f2f2"/>
<path d="M786.2 224H787.96V225.76H786.2V224Z" fill="#f2f2f2"/>
<path d="M786.2 252.16H787.96V253.92H786.2V252.16Z" fill="#f2f2f2"/>
<path d="M786.2 231.04H787.96V232.8H786.2V231.04Z" fill="#f2f2f2"/>
<path d="M786.2 259.2H787.96V260.96H786.2V259.2Z" fill="#f2f2f2"/>
<path d="M786.2 227.52H787.96V229.28H786.2V227.52Z" fill="#f2f2f2"/>
<path d="M786.2 241.6H787.96V243.36H786.2V241.6Z" fill="#f2f2f2"/>
<path d="M786.2 255.68H787.96V257.44H786.2V255.68Z" fill="#f2f2f2"/>
<path d="M786.2 234.56H787.96V236.32H786.2V234.56Z" fill="#f2f2f2"/>
<path d="M786.2 248.64H787.96V250.4H786.2V248.64Z" fill="#f2f2f2"/>
<path d="M786.2 239.84H787.96V241.6H786.2V239.84Z" fill="#f2f2f2"/>
<path d="M786.2 253.92H787.96V255.68H786.2V253.92Z" fill="#f2f2f2"/>
<path d="M786.2 246.88H787.96V248.64H786.2V246.88Z" fill="#f2f2f2"/>
<path d="M786.2 229.28H787.96V231.04H786.2V229.28Z" fill="#f2f2f2"/>
<path d="M786.2 257.44H787.96V259.2H786.2V257.44Z" fill="#f2f2f2"/>
<path d="M786.2 250.4H787.96V252.16H786.2V250.4Z" fill="#f2f2f2"/>
<path d="M786.2 264.48H787.96V266.24H786.2V264.48Z" fill="#f2f2f2"/>
<path d="M799.953 218.883C799.534 218.463 798.999 218.177 798.417 218.061C797.835 217.946 797.232 218.005 796.684 218.232C796.136 218.459 795.667 218.844 795.338 219.337C795.008 219.83 794.832 220.41 794.832 221.004C794.832 221.597 795.008 222.177 795.338 222.671C795.667 223.164 796.136 223.548 796.684 223.775C797.232 224.003 797.835 224.062 798.417 223.946C798.999 223.83 799.534 223.545 799.953 223.125C800.516 222.563 800.832 221.799 800.832 221.004C800.832 220.208 800.516 219.445 799.953 218.883ZM797.125 221.711C796.985 221.571 796.89 221.393 796.851 221.199C796.813 221.005 796.832 220.804 796.908 220.621C796.984 220.438 797.112 220.282 797.276 220.172C797.441 220.062 797.634 220.004 797.832 220.004C798.03 220.004 798.223 220.062 798.387 220.172C798.552 220.282 798.68 220.438 798.756 220.621C798.831 220.804 798.851 221.005 798.813 221.199C798.774 221.393 798.679 221.571 798.539 221.711C798.351 221.898 798.097 222.004 797.832 222.004C797.567 222.004 797.312 221.898 797.125 221.711ZM803.489 215.347C802.173 214.039 800.394 213.303 798.539 213.296C798.275 213.297 798.022 213.402 797.835 213.589C797.648 213.776 797.543 214.029 797.542 214.293C797.543 214.557 797.648 214.811 797.835 214.997C798.022 215.184 798.275 215.289 798.539 215.29C799.197 215.289 799.848 215.418 800.456 215.67C801.064 215.921 801.616 216.29 802.081 216.755C802.546 217.22 802.915 217.772 803.166 218.38C803.417 218.987 803.546 219.639 803.546 220.297C803.543 220.56 803.645 220.814 803.828 221.004C803.964 221.155 804.142 221.262 804.339 221.31C804.537 221.358 804.744 221.345 804.934 221.272C805.124 221.199 805.287 221.07 805.401 220.902C805.516 220.734 805.576 220.535 805.575 220.332C805.572 219.405 805.386 218.487 805.028 217.632C804.67 216.777 804.147 216 803.489 215.347ZM811.519 222.322C811.519 220.351 811.132 218.4 810.378 216.579C809.624 214.758 808.519 213.104 807.125 211.71C805.732 210.317 804.078 209.212 802.257 208.458C800.436 207.704 798.485 207.316 796.514 207.317C796.248 207.317 795.992 207.423 795.804 207.611C795.616 207.799 795.51 208.055 795.51 208.321C795.51 208.587 795.616 208.843 795.804 209.031C795.992 209.219 796.248 209.325 796.514 209.325C799.961 209.326 803.266 210.696 805.703 213.133C808.14 215.57 809.51 218.875 809.511 222.322C809.51 222.454 809.536 222.585 809.586 222.707C809.636 222.829 809.71 222.94 809.804 223.033C809.897 223.126 810.008 223.2 810.13 223.251C810.252 223.301 810.383 223.326 810.515 223.326C810.647 223.326 810.778 223.301 810.9 223.251C811.022 223.2 811.133 223.126 811.226 223.033C811.319 222.94 811.393 222.829 811.443 222.707C811.494 222.585 811.519 222.454 811.519 222.322Z" fill="url(#paint20_linear_1318_162529)"/>
<path d="M430.492 288.372L421.261 309.159H419.088L409.857 288.372H412.239L420.219 306.427L428.259 288.372H430.492Z" fill="#f2f2f2"/>
<path d="M445.949 303.606H434.336L431.835 309.159H429.542L439.071 288.372H441.245L450.773 309.159H448.45L445.949 303.606ZM445.145 301.824L440.143 290.659L435.14 301.824H445.145Z" fill="#f2f2f2"/>
<path d="M454.221 288.372H456.425V307.258H468.097V309.159H454.221V288.372Z" fill="#f2f2f2"/>
<path d="M486.495 307.258V309.159H471.755V288.372H486.048V290.273H473.959V297.667H484.738V299.538H473.959V307.258H486.495Z" fill="#f2f2f2"/>
<path d="M495.724 290.273H488.399V288.372H505.252V290.273H497.927V309.159H495.724V290.273Z" fill="#f2f2f2"/>
<path d="M524.367 288.372C527.027 288.372 529.111 289.006 530.62 290.273C532.129 291.54 532.883 293.282 532.883 295.499C532.883 297.716 532.129 299.459 530.62 300.726C529.111 301.973 527.027 302.596 524.367 302.596H518.769V309.159H516.566V288.372H524.367ZM524.307 300.666C526.372 300.666 527.95 300.221 529.042 299.33C530.134 298.419 530.68 297.142 530.68 295.499C530.68 293.816 530.134 292.53 529.042 291.639C527.95 290.728 526.372 290.273 524.307 290.273H518.769V300.666H524.307Z" fill="#f2f2f2"/>
<path d="M549.673 303.606H538.06L535.558 309.159H533.266L542.794 288.372H544.968L554.496 309.159H552.174L549.673 303.606ZM548.869 301.824L543.866 290.659L538.864 301.824H548.869Z" fill="#f2f2f2"/>
<path d="M572.177 309.159L567.413 302.478C566.877 302.537 566.321 302.567 565.746 302.567H560.148V309.159H557.944V288.372H565.746C568.406 288.372 570.49 289.006 571.999 290.273C573.508 291.54 574.262 293.282 574.262 295.499C574.262 297.123 573.845 298.498 573.011 299.627C572.197 300.735 571.026 301.537 569.498 302.032L574.589 309.159H572.177ZM565.686 300.696C567.751 300.696 569.329 300.241 570.421 299.33C571.512 298.419 572.058 297.142 572.058 295.499C572.058 293.816 571.512 292.53 570.421 291.639C569.329 290.728 567.751 290.273 565.686 290.273H560.148V300.696H565.686Z" fill="#f2f2f2"/>
<path d="M585.924 299.389L581.666 303.695V309.159H579.463V288.372H581.666V300.933L593.904 288.372H596.435L587.413 297.786L597.06 309.159H594.44L585.924 299.389Z" fill="#f2f2f2"/>
<path d="M600.632 288.372H602.835V309.159H600.632V288.372Z" fill="#f2f2f2"/>
<path d="M627.036 288.372V309.159H625.22L611.82 292.292V309.159H609.617V288.372H611.433L624.863 305.239V288.372H627.036Z" fill="#f2f2f2"/>
<path d="M648.519 298.766H650.633V306.694C649.661 307.545 648.509 308.199 647.179 308.654C645.849 309.109 644.45 309.337 642.981 309.337C640.896 309.337 639.021 308.882 637.353 307.971C635.686 307.06 634.375 305.803 633.423 304.2C632.47 302.577 631.993 300.765 631.993 298.766C631.993 296.766 632.47 294.965 633.423 293.361C634.375 291.738 635.686 290.471 637.353 289.56C639.021 288.65 640.906 288.194 643.011 288.194C644.599 288.194 646.058 288.452 647.388 288.966C648.718 289.461 649.839 290.204 650.752 291.193L649.383 292.589C647.735 290.966 645.641 290.154 643.1 290.154C641.413 290.154 639.884 290.53 638.514 291.282C637.164 292.015 636.102 293.044 635.328 294.371C634.554 295.677 634.167 297.142 634.167 298.766C634.167 300.389 634.554 301.854 635.328 303.161C636.102 304.467 637.164 305.497 638.514 306.249C639.864 307.001 641.383 307.377 643.07 307.377C645.214 307.377 647.03 306.843 648.519 305.774V298.766Z" fill="#f2f2f2"/>
<path d="M686.31 288.372V309.159H684.196V292.53L676.008 306.516H674.965L666.777 292.619V309.159H664.663V288.372H666.479L675.531 303.784L684.494 288.372H686.31Z" fill="#f2f2f2"/>
<path d="M706.173 303.606H694.561L692.059 309.159H689.767L699.295 288.372H701.469L710.997 309.159H708.675L706.173 303.606ZM705.369 301.824L700.367 290.659L695.365 301.824H705.369Z" fill="#f2f2f2"/>
<path d="M714.445 288.372H722.932C725.135 288.372 727.08 288.818 728.768 289.709C730.455 290.58 731.765 291.807 732.698 293.391C733.631 294.955 734.098 296.746 734.098 298.766C734.098 300.785 733.631 302.586 732.698 304.17C731.765 305.734 730.455 306.961 728.768 307.852C727.08 308.723 725.135 309.159 722.932 309.159H714.445V288.372ZM722.812 307.258C724.639 307.258 726.237 306.902 727.606 306.189C728.976 305.457 730.038 304.457 730.792 303.19C731.547 301.903 731.924 300.429 731.924 298.766C731.924 297.103 731.547 295.638 730.792 294.371C730.038 293.084 728.976 292.084 727.606 291.372C726.237 290.639 724.639 290.273 722.812 290.273H716.649V307.258H722.812Z" fill="#f2f2f2"/>
<path d="M753.785 307.258V309.159H739.046V288.372H753.338V290.273H741.249V297.667H752.028V299.538H741.249V307.258H753.785Z" fill="#f2f2f2"/>
<path d="M772.504 309.337C770.956 309.337 769.467 309.09 768.038 308.595C766.629 308.1 765.537 307.447 764.763 306.635L765.626 304.942C766.38 305.695 767.383 306.308 768.633 306.783C769.884 307.239 771.174 307.466 772.504 307.466C774.37 307.466 775.77 307.13 776.703 306.457C777.636 305.764 778.102 304.873 778.102 303.784C778.102 302.953 777.844 302.289 777.328 301.795C776.832 301.3 776.217 300.923 775.482 300.666C774.748 300.389 773.725 300.092 772.415 299.775C770.847 299.379 769.596 299.003 768.663 298.647C767.73 298.271 766.926 297.707 766.251 296.954C765.596 296.202 765.269 295.182 765.269 293.896C765.269 292.846 765.547 291.896 766.103 291.045C766.658 290.174 767.512 289.481 768.663 288.966C769.815 288.452 771.244 288.194 772.951 288.194C774.142 288.194 775.303 288.362 776.435 288.699C777.586 289.016 778.579 289.461 779.413 290.035L778.668 291.787C777.795 291.213 776.862 290.788 775.869 290.51C774.877 290.213 773.904 290.065 772.951 290.065C771.125 290.065 769.745 290.421 768.812 291.134C767.899 291.827 767.442 292.728 767.442 293.836C767.442 294.668 767.691 295.341 768.187 295.856C768.703 296.35 769.338 296.736 770.093 297.014C770.867 297.271 771.899 297.558 773.189 297.875C774.718 298.251 775.949 298.627 776.882 299.003C777.834 299.36 778.638 299.914 779.293 300.666C779.949 301.399 780.276 302.398 780.276 303.665C780.276 304.715 779.988 305.675 779.413 306.546C778.857 307.397 777.993 308.08 776.822 308.595C775.651 309.09 774.212 309.337 772.504 309.337Z" fill="#f2f2f2"/>
<path d="M785.077 288.372H787.281V309.159H785.077V288.372Z" fill="#f2f2f2"/>
<path d="M815.71 288.372V309.159H813.596V292.53L805.407 306.516H804.365L796.177 292.619V309.159H794.062V288.372H795.879L804.931 303.784L813.894 288.372H815.71Z" fill="#f2f2f2"/>
<path d="M830.303 288.372C832.963 288.372 835.047 289.006 836.556 290.273C838.064 291.54 838.819 293.282 838.819 295.499C838.819 297.716 838.064 299.459 836.556 300.726C835.047 301.973 832.963 302.596 830.303 302.596H824.705V309.159H822.501V288.372H830.303ZM830.243 300.666C832.308 300.666 833.886 300.221 834.978 299.33C836.069 298.419 836.615 297.142 836.615 295.499C836.615 293.816 836.069 292.53 834.978 291.639C833.886 290.728 832.308 290.273 830.243 290.273H824.705V300.666H830.243Z" fill="#f2f2f2"/>
<path d="M843.583 288.372H845.787V307.258H857.459V309.159H843.583V288.372Z" fill="#f2f2f2"/>
<path d="M875.857 307.258V309.159H861.118V288.372H875.41V290.273H863.321V297.667H874.1V299.538H863.321V307.258H875.857Z" fill="#f2f2f2"/>
<defs>
<linearGradient id="paint0_linear_1318_162529" x1="194.598" y1="150.316" x2="265.736" y2="150.316" gradientUnits="userSpaceOnUse">
<stop stop-color="#2DB0D0"/>
<stop offset="1" stop-color="#0583B9"/>
</linearGradient>
<linearGradient id="paint1_linear_1318_162529" x1="270.586" y1="222.409" x2="271.165" y2="222.409" gradientUnits="userSpaceOnUse">
<stop stop-color="#2DB0D0"/>
<stop offset="1" stop-color="#0583B9"/>
</linearGradient>
<linearGradient id="paint2_linear_1318_162529" x1="264.593" y1="247.341" x2="264.603" y2="247.341" gradientUnits="userSpaceOnUse">
<stop stop-color="#2DB0D0"/>
<stop offset="1" stop-color="#0583B9"/>
</linearGradient>
<linearGradient id="paint3_linear_1318_162529" x1="194.599" y1="182.833" x2="409.799" y2="182.833" gradientUnits="userSpaceOnUse">
<stop stop-color="#2DB0D0"/>
<stop offset="1" stop-color="#0583B9"/>
</linearGradient>
<linearGradient id="paint4_linear_1318_162529" x1="262.238" y1="248.502" x2="264.593" y2="248.502" gradientUnits="userSpaceOnUse">
<stop stop-color="#2DB0D0"/>
<stop offset="1" stop-color="#0583B9"/>
</linearGradient>
<linearGradient id="paint5_linear_1318_162529" x1="264.593" y1="247.346" x2="264.594" y2="247.346" gradientUnits="userSpaceOnUse">
<stop stop-color="#2DB0D0"/>
<stop offset="1" stop-color="#0583B9"/>
</linearGradient>
<linearGradient id="paint6_linear_1318_162529" x1="263.445" y1="248.465" x2="263.471" y2="248.465" gradientUnits="userSpaceOnUse">
<stop stop-color="#2DB0D0"/>
<stop offset="1" stop-color="#0583B9"/>
</linearGradient>
<linearGradient id="paint7_linear_1318_162529" x1="263.472" y1="247.899" x2="264.593" y2="247.899" gradientUnits="userSpaceOnUse">
<stop stop-color="#2DB0D0"/>
<stop offset="1" stop-color="#0583B9"/>
</linearGradient>
<linearGradient id="paint8_linear_1318_162529" x1="262.238" y1="249.069" x2="263.445" y2="249.069" gradientUnits="userSpaceOnUse">
<stop stop-color="#2DB0D0"/>
<stop offset="1" stop-color="#0583B9"/>
</linearGradient>
<linearGradient id="paint9_linear_1318_162529" x1="277.777" y1="234.396" x2="277.778" y2="234.396" gradientUnits="userSpaceOnUse">
<stop stop-color="#2DB0D0"/>
<stop offset="1" stop-color="#0583B9"/>
</linearGradient>
<linearGradient id="paint10_linear_1318_162529" x1="409.857" y1="158.464" x2="485.545" y2="158.464" gradientUnits="userSpaceOnUse">
<stop stop-color="#2DB0D0"/>
<stop offset="1" stop-color="#0583B9"/>
</linearGradient>
<linearGradient id="paint11_linear_1318_162529" x1="496.455" y1="158.464" x2="597.211" y2="158.464" gradientUnits="userSpaceOnUse">
<stop stop-color="#2DB0D0"/>
<stop offset="1" stop-color="#0583B9"/>
</linearGradient>
<linearGradient id="paint12_linear_1318_162529" x1="604.763" y1="158.464" x2="705.999" y2="158.464" gradientUnits="userSpaceOnUse">
<stop stop-color="#2DB0D0"/>
<stop offset="1" stop-color="#0583B9"/>
</linearGradient>
<linearGradient id="paint13_linear_1318_162529" x1="713.552" y1="158.464" x2="794.037" y2="158.464" gradientUnits="userSpaceOnUse">
<stop stop-color="#2DB0D0"/>
<stop offset="1" stop-color="#0583B9"/>
</linearGradient>
<linearGradient id="paint14_linear_1318_162529" x1="798.353" y1="158.464" x2="875.839" y2="158.464" gradientUnits="userSpaceOnUse">
<stop stop-color="#2DB0D0"/>
<stop offset="1" stop-color="#0583B9"/>
</linearGradient>
<linearGradient id="paint15_linear_1318_162529" x1="829.4" y1="237.972" x2="875.741" y2="237.972" gradientUnits="userSpaceOnUse">
<stop stop-color="#2DB0D0"/>
<stop offset="1" stop-color="#0583B9"/>
</linearGradient>
<linearGradient id="paint16_linear_1318_162529" x1="816.897" y1="246.209" x2="854.288" y2="246.209" gradientUnits="userSpaceOnUse">
<stop stop-color="#2DB0D0"/>
<stop offset="1" stop-color="#0583B9"/>
</linearGradient>
<linearGradient id="paint17_linear_1318_162529" x1="761" y1="276" x2="784.001" y2="276" gradientUnits="userSpaceOnUse">
<stop stop-color="#2DB0D0"/>
<stop offset="1" stop-color="#0583B9"/>
</linearGradient>
<linearGradient id="paint18_linear_1318_162529" x1="761" y1="276" x2="784.001" y2="276" gradientUnits="userSpaceOnUse">
<stop stop-color="#2DB0D0"/>
<stop offset="1" stop-color="#0583B9"/>
</linearGradient>
<linearGradient id="paint19_linear_1318_162529" x1="761" y1="276" x2="784.001" y2="276" gradientUnits="userSpaceOnUse">
<stop stop-color="#2DB0D0"/>
<stop offset="1" stop-color="#0583B9"/>
</linearGradient>
<linearGradient id="paint20_linear_1318_162529" x1="793.708" y1="209.708" x2="809.13" y2="225.13" gradientUnits="userSpaceOnUse">
<stop stop-color="#2DB0D0"/>
<stop offset="1" stop-color="#0583B9"/>
</linearGradient>
</defs>
</svg>
